<svg id="mermaid-1599447413690" width="1722.875" xmlns="http://www.w3.org/2000/svg" viewBox="27  10 984.5 703.5"><style>#mermaid-1599447413690{font-family:"trebuchet ms",verdana,arial;font-size:16px;fill:#333;}#mermaid-1599447413690 .error-icon{fill:#552222;}#mermaid-1599447413690 .error-text{fill:#552222;stroke:#552222;}#mermaid-1599447413690 .edge-thickness-normal{stroke-width:2px;}#mermaid-1599447413690 .edge-thickness-thick{stroke-width:3.5px;}#mermaid-1599447413690 .edge-pattern-solid{stroke-dasharray:0;}#mermaid-1599447413690 .edge-pattern-dashed{stroke-dasharray:3;}#mermaid-1599447413690 .edge-pattern-dotted{stroke-dasharray:2;}#mermaid-1599447413690 .marker{fill:#333333;}#mermaid-1599447413690 .marker.cross{stroke:#333333;}#mermaid-1599447413690 svg{font-family:"trebuchet ms",verdana,arial;font-size:16px;}#mermaid-1599447413690 g.stateGroup text{fill:#9370DB;stroke:none;font-size:10px;}#mermaid-1599447413690 g.stateGroup text{fill:#333;stroke:none;font-size:10px;}#mermaid-1599447413690 g.stateGroup .state-title{font-weight:bolder;fill:black;}#mermaid-1599447413690 g.stateGroup rect{fill:#ECECFF;stroke:#9370DB;}#mermaid-1599447413690 g.stateGroup line{stroke:#333333;stroke-width:1;}#mermaid-1599447413690 .transition{stroke:#333333;stroke-width:1;fill:none;}#mermaid-1599447413690 .stateGroup .composit{fill:white;border-bottom:1px;}#mermaid-1599447413690 .stateGroup .alt-composit{fill:#e0e0e0;border-bottom:1px;}#mermaid-1599447413690 .state-note{stroke:#aaaa33;fill:#fff5ad;}#mermaid-1599447413690 .state-note text{fill:black;stroke:none;font-size:10px;}#mermaid-1599447413690 .stateLabel .box{stroke:none;stroke-width:0;fill:#ECECFF;opacity:0.5;}#mermaid-1599447413690 .edgeLabel .label rect{fill:hsl(80,100%,96.2745098039%);opacity:0.5;}#mermaid-1599447413690 .edgeLabel .label text{fill:rgb(9.5000000001,9.5000000001,9.5000000001);}#mermaid-1599447413690 .label div .edgeLabel{color:rgb(9.5000000001,9.5000000001,9.5000000001);}#mermaid-1599447413690 .stateLabel text{fill:black;font-size:10px;font-weight:bold;}#mermaid-1599447413690 .node circle.state-start{fill:#333333;stroke:black;}#mermaid-1599447413690 .node circle.state-end{fill:hsl(240,60%,86.2745098039%);stroke:white;stroke-width:1.5;}#mermaid-1599447413690 .end-state-inner{fill:white;stroke-width:1.5;}#mermaid-1599447413690 .node rect{fill:#ECECFF;stroke:#9370DB;stroke-width:1px;}#mermaid-1599447413690 #statediagram-barbEnd{fill:#333333;}#mermaid-1599447413690 .statediagram-cluster rect{fill:#ECECFF;stroke:#9370DB;stroke-width:1px;}#mermaid-1599447413690 .cluster-label,#mermaid-1599447413690 .nodeLabel{color:#333;}#mermaid-1599447413690 .statediagram-cluster rect.outer{rx:5px;ry:5px;}#mermaid-1599447413690 .statediagram-state .divider{stroke:#9370DB;}#mermaid-1599447413690 .statediagram-state .title-state{rx:5px;ry:5px;}#mermaid-1599447413690 .statediagram-cluster.statediagram-cluster .inner{fill:white;}#mermaid-1599447413690 .statediagram-cluster.statediagram-cluster-alt .inner{fill:#e0e0e0;}#mermaid-1599447413690 .statediagram-cluster .inner{rx:0;ry:0;}#mermaid-1599447413690 .statediagram-state rect.basic{rx:5px;ry:5px;}#mermaid-1599447413690 .statediagram-state rect.divider{stroke-dasharray:10,10;fill:#efefef;}#mermaid-1599447413690 .note-edge{stroke-dasharray:5;}#mermaid-1599447413690 .statediagram-note rect{fill:#fff5ad;stroke:#aaaa33;stroke-width:1px;rx:0;ry:0;}#mermaid-1599447413690 .statediagram-note rect{fill:#fff5ad;stroke:#aaaa33;stroke-width:1px;rx:0;ry:0;}#mermaid-1599447413690 .statediagram-note text{fill:black;}#mermaid-1599447413690 .statediagram-note .nodeLabel{color:black;}#mermaid-1599447413690 #dependencyStart,#mermaid-1599447413690 #dependencyEnd{fill:#333333;stroke:#333333;stroke-width:1;}#mermaid-1599447413690:root{--mermaid-font-family:"trebuchet ms",verdana,arial;}#mermaid-1599447413690 state{fill:apa;}</style><g></g><defs><marker id="dependencyEnd" refX="19" refY="7" markerWidth="20" markerHeight="28" orient="auto"><path d="M 19,7 L9,13 L14,7 L9,1 Z"></path></marker></defs><g id="A" class="stateGroup" transform="translate(523.5,12.75 )" data-x-shift="523.5"><rect x="8" y="8" width="117" height="27" rx="5"></rect><text x="16" y="20.4" font-size="24" class="state-title">Channel Information</text><text x="8" y="34.2" class="state-description"></text><line x1="8" y1="24" y2="24" class="descr-divider" x2="125"></line></g><g id="A-note" class="state-note" transform="translate(706.5,10 )" data-x-shift="706.5"><rect x="0" y="8" height="32.5" width="297"></rect><g><text style="text-anchor: start;" class="noteText"><tspan x="10" y="25">inital the Channel name, bind your Channel to an Orginization.</tspan></text></g></g><g id="B" class="stateGroup" transform="translate(546,113.75 )" data-x-shift="546"><rect x="8" y="8" width="72" height="27" rx="5"></rect><text x="16" y="20.4" font-size="24" class="state-title">Gateway In</text><text x="8" y="34.2" class="state-description"></text><line x1="8" y1="24" y2="24" class="descr-divider" x2="80"></line></g><g id="B-note" class="state-note" transform="translate(227,98.5 )" data-x-shift="227"><rect x="0" y="8" height="57.5" width="253"></rect><g><text style="text-anchor: start;" class="noteText"><tspan x="10" y="25">setup incoming message gateway transport protocol</tspan><tspan x="10" y="37.5">- FTP / SFTP</tspan><tspan x="10" y="50">- Solace</tspan></text></g></g><g id="C" class="stateGroup" transform="translate(496,252.25 )" data-x-shift="496"><rect x="8" y="8" width="70" height="27" rx="5"></rect><text x="16" y="20.4" font-size="24" class="state-title">Message In</text><text x="8" y="34.2" class="state-description"></text><line x1="8" y1="24" y2="24" class="descr-divider" x2="78"></line></g><g id="C-note" class="state-note" transform="translate(167,212 )" data-x-shift="167"><rect x="0" y="8" height="107.5" width="263"></rect><g><text style="text-anchor: start;" class="noteText"><tspan x="10" y="25">define incoming message format, current can support</tspan><tspan x="10" y="37.5">- XML</tspan><tspan x="10" y="50">- JSON</tspan><tspan x="10" y="62.5">- EDIFACT</tspan><tspan x="10" y="75">- X.12</tspan><tspan x="10" y="87.5">- CSV</tspan><tspan x="10" y="100">if no mapping, you can just skip.</tspan></text></g></g><g id="D" class="stateGroup" transform="translate(492,409.5 )" data-x-shift="492"><rect x="8" y="8" width="78" height="27" rx="5"></rect><text x="16" y="20.4" font-size="24" class="state-title">Message Out</text><text x="8" y="34.2" class="state-description"></text><line x1="8" y1="24" y2="24" class="descr-divider" x2="86"></line></g><g id="D-note" class="state-note" transform="translate(163,375.5 )" data-x-shift="163"><rect x="0" y="8" height="95" width="263"></rect><g><text style="text-anchor: start;" class="noteText"><tspan x="10" y="25">define incoming message format, current can support</tspan><tspan x="10" y="37.5">- XML</tspan><tspan x="10" y="50">- JSON</tspan><tspan x="10" y="62.5">- EDIFACT</tspan><tspan x="10" y="75">- X.12</tspan><tspan x="10" y="87.5">if no mapping, you can just skip.</tspan></text></g></g><g id="E" class="stateGroup" transform="translate(497,541.75 )" data-x-shift="497"><rect x="8" y="8" width="68" height="27" rx="5"></rect><text x="16" y="20.4" font-size="24" class="state-title">Transform</text><text x="8" y="34.2" class="state-description"></text><line x1="8" y1="24" y2="24" class="descr-divider" x2="76"></line></g><g id="E-note" class="state-note" transform="translate(35,526.5 )" data-x-shift="35"><rect x="0" y="8" height="57.5" width="396"></rect><g><text style="text-anchor: start;" class="noteText"><tspan x="10" y="25">you can upload your own Groovy mapping script or create by graphic mapping UI.</tspan><tspan x="10" y="37.5">if use graphic UI, you must upload sample files in Message In and Message Out steps.</tspan><tspan x="10" y="50">if no mapping, you can just skip.</tspan></text></g></g><g id="F" class="stateGroup" transform="translate(542,655.25 )" data-x-shift="542"><rect x="8" y="8" width="80" height="27" rx="5"></rect><text x="16" y="20.4" font-size="24" class="state-title">Gateway Out</text><text x="8" y="34.2" class="state-description"></text><line x1="8" y1="24" y2="24" class="descr-divider" x2="88"></line></g><g id="F-note" class="state-note" transform="translate(688,640 )" data-x-shift="688"><rect x="0" y="8" height="57.5" width="251"></rect><g><text style="text-anchor: start;" class="noteText"><tspan x="10" y="25">setup outgoing message gateway transport protocol</tspan><tspan x="10" y="37.5">- FTP / SFTP</tspan><tspan x="10" y="50">- Solace</tspan></text></g></g><path d="M590,55.75L590,57.875C590,60,590,64.25,590,68.04166666666667C590,71.83333333333333,590,75.16666666666667,590,78.5C590,81.83333333333333,590,85.16666666666667,590,91.04166666666667C590,96.91666666666667,590,105.33333333333333,590,109.54166666666667L590,113.75" id="edge24" class="transition" marker-end="url(#dependencyEnd)"></path><path d="M566.5454545454545,156.75L561.9545454545454,160.95833333333334C557.3636363636364,165.16666666666666,548.1818181818181,173.58333333333334,543.5909090909091,179.45833333333334C539,185.33333333333334,539,188.66666666666666,539,192C539,195.33333333333334,539,198.66666666666666,539,208.70833333333334C539,218.75,539,235.5,539,243.875L539,252.25" id="edge25" class="transition" marker-end="url(#dependencyEnd)"></path><path d="M539,295.25L539,303.625C539,312,539,328.75,539,338.7916666666667C539,348.8333333333333,539,352.1666666666667,539,355.5C539,358.8333333333333,539,362.1666666666667,539,371.1666666666667C539,380.1666666666667,539,394.8333333333333,539,402.1666666666667L539,409.5" id="edge26" class="transition" marker-end="url(#dependencyEnd)"></path><path d="M539,452.5L539,459.8333333333333C539,467.1666666666667,539,481.8333333333333,539,490.8333333333333C539,499.8333333333333,539,503.1666666666667,539,506.5C539,509.8333333333333,539,513.1666666666666,539,519.0416666666666C539,524.9166666666666,539,533.3333333333334,539,537.5416666666666L539,541.75" id="edge27" class="transition" marker-end="url(#dependencyEnd)"></path><path d="M539,584.75L539,588.9583333333334C539,593.1666666666666,539,601.5833333333334,539,607.4583333333334C539,613.3333333333334,539,616.6666666666666,539,620C539,623.3333333333334,539,626.6666666666666,543.5909090909091,632.5416666666666C548.1818181818181,638.4166666666666,557.3636363636364,646.8333333333334,561.9545454545454,651.0416666666666L566.5454545454545,655.25" id="edge28" class="transition" marker-end="url(#dependencyEnd)"></path><path d="M613.4545454545455,156.75L618.0454545454546,160.95833333333334C622.6363636363636,165.16666666666666,631.8181818181819,173.58333333333334,636.4090909090909,179.45833333333334C641,185.33333333333334,641,188.66666666666666,641,192C641,195.33333333333334,641,198.66666666666666,641,212.29166666666666C641,225.91666666666666,641,249.83333333333334,641,273.75C641,297.6666666666667,641,321.5833333333333,641,335.2083333333333C641,348.8333333333333,641,352.1666666666667,641,355.5C641,358.8333333333333,641,362.1666666666667,641,374.75C641,387.3333333333333,641,409.1666666666667,641,431C641,452.8333333333333,641,474.6666666666667,641,487.25C641,499.8333333333333,641,503.1666666666667,641,506.5C641,509.8333333333333,641,513.1666666666666,641,522.625C641,532.0833333333334,641,547.6666666666666,641,563.25C641,578.8333333333334,641,594.4166666666666,641,603.875C641,613.3333333333334,641,616.6666666666666,641,620C641,623.3333333333334,641,626.6666666666666,636.4090909090909,632.5416666666666C631.8181818181819,638.4166666666666,622.6363636363636,646.8333333333334,618.0454545454546,651.0416666666666L613.4545454545455,655.25" id="edge29" class="transition" marker-end="url(#dependencyEnd)"></path></svg>